<?xml version="1.0" encoding="UTF-8" standalone="no"?><svg xmlns="http://www.w3.org/2000/svg" xmlns:xlink="http://www.w3.org/1999/xlink" contentScriptType="application/ecmascript" contentStyleType="text/css" height="400px" preserveAspectRatio="none" style="width:181px;height:400px;" version="1.1" viewBox="0 0 181 400" width="181px" zoomAndPan="magnify"><defs><filter height="300%" id="f1spd1hl8a0jzv" width="300%" x="-1" y="-1"><feGaussianBlur result="blurOut" stdDeviation="2.0"/><feColorMatrix in="blurOut" result="blurOut2" type="matrix" values="0 0 0 0 0 0 0 0 0 0 0 0 0 0 0 0 0 0 .4 0"/><feOffset dx="4.0" dy="4.0" in="blurOut2" result="blurOut3"/><feBlend in="SourceGraphic" in2="blurOut3" mode="normal"/></filter></defs><g><line style="stroke: #A80036; stroke-width: 1.0;" x1="32" x2="32" y1="40.4063" y2="255.0469"/><line style="stroke: #A80036; stroke-width: 1.0; stroke-dasharray: 1.0,4.0;" x1="32" x2="32" y1="255.0469" y2="295.9375"/><line style="stroke: #A80036; stroke-width: 1.0;" x1="32" x2="32" y1="295.9375" y2="393.6406"/><line style="stroke: #A80036; stroke-width: 1.0;" x1="141.5" x2="141.5" y1="40.4063" y2="255.0469"/><line style="stroke: #A80036; stroke-width: 1.0; stroke-dasharray: 1.0,4.0;" x1="141.5" x2="141.5" y1="255.0469" y2="295.9375"/><line style="stroke: #A80036; stroke-width: 1.0;" x1="141.5" x2="141.5" y1="295.9375" y2="393.6406"/><rect fill="#FEFECE" filter="url(#f1spd1hl8a0jzv)" height="30.4063" style="stroke: #A80036; stroke-width: 1.5;" width="50" x="5" y="5"/><text fill="#000000" font-family="sans-serif" font-size="14" lengthAdjust="spacingAndGlyphs" text-decoration="underline" textLength="36" x="12" y="24.9883">client</text><rect fill="#FEFECE" filter="url(#f1spd1hl8a0jzv)" height="30.4063" style="stroke: #A80036; stroke-width: 1.5;" width="55" x="112.5" y="5"/><text fill="#000000" font-family="sans-serif" font-size="14" lengthAdjust="spacingAndGlyphs" text-decoration="underline" textLength="41" x="119.5" y="24.9883">server</text><polygon fill="#A80036" points="130,67.6406,140,71.6406,130,75.6406,134,71.6406" style="stroke: #A80036; stroke-width: 1.0;"/><line style="stroke: #A80036; stroke-width: 1.0;" x1="32" x2="136" y1="71.6406" y2="71.6406"/><text fill="#000000" font-family="sans-serif" font-size="13" lengthAdjust="spacingAndGlyphs" textLength="56" x="39" y="66.4668">connect()</text><polygon fill="#A80036" points="43,96.875,33,100.875,43,104.875,39,100.875" style="stroke: #A80036; stroke-width: 1.0;"/><line style="stroke: #A80036; stroke-width: 1.0; stroke-dasharray: 2.0,2.0;" x1="37" x2="141" y1="100.875" y2="100.875"/><text fill="#000000" font-family="sans-serif" font-size="13" lengthAdjust="spacingAndGlyphs" textLength="49" x="49" y="95.7012">accept()</text><polygon fill="#A80036" points="130,126.1094,140,130.1094,130,134.1094,134,130.1094" style="stroke: #A80036; stroke-width: 1.0;"/><line style="stroke: #A80036; stroke-width: 1.0;" x1="32" x2="136" y1="130.1094" y2="130.1094"/><text fill="#000000" font-family="sans-serif" font-size="13" lengthAdjust="spacingAndGlyphs" textLength="80" x="39" y="124.9355">send(filesize)</text><polygon fill="#A80036" points="130,155.3438,140,159.3438,130,163.3438,134,159.3438" style="stroke: #A80036; stroke-width: 1.0;"/><line style="stroke: #A80036; stroke-width: 1.0;" x1="32" x2="136" y1="159.3438" y2="159.3438"/><text fill="#000000" font-family="sans-serif" font-size="13" lengthAdjust="spacingAndGlyphs" textLength="86" x="39" y="154.1699">send(chunk_1)</text><polygon fill="#A80036" points="43,184.5781,33,188.5781,43,192.5781,39,188.5781" style="stroke: #A80036; stroke-width: 1.0;"/><line style="stroke: #A80036; stroke-width: 1.0; stroke-dasharray: 2.0,2.0;" x1="37" x2="141" y1="188.5781" y2="188.5781"/><text fill="#000000" font-family="sans-serif" font-size="13" lengthAdjust="spacingAndGlyphs" textLength="30" x="49" y="183.4043">ack()</text><polygon fill="#A80036" points="130,213.8125,140,217.8125,130,221.8125,134,217.8125" style="stroke: #A80036; stroke-width: 1.0;"/><line style="stroke: #A80036; stroke-width: 1.0;" x1="32" x2="136" y1="217.8125" y2="217.8125"/><text fill="#000000" font-family="sans-serif" font-size="13" lengthAdjust="spacingAndGlyphs" textLength="86" x="39" y="212.6387">send(chunk_2)</text><polygon fill="#A80036" points="43,243.0469,33,247.0469,43,251.0469,39,247.0469" style="stroke: #A80036; stroke-width: 1.0;"/><line style="stroke: #A80036; stroke-width: 1.0; stroke-dasharray: 2.0,2.0;" x1="37" x2="141" y1="247.0469" y2="247.0469"/><text fill="#000000" font-family="sans-serif" font-size="13" lengthAdjust="spacingAndGlyphs" textLength="30" x="49" y="241.873">ack()</text><text fill="#000000" font-family="sans-serif" font-size="11" lengthAdjust="spacingAndGlyphs" textLength="97" x="38.5" y="279.252">Repeat until finish</text><polygon fill="#A80036" points="130,313.1719,140,317.1719,130,321.1719,134,317.1719" style="stroke: #A80036; stroke-width: 1.0;"/><line style="stroke: #A80036; stroke-width: 1.0;" x1="32" x2="136" y1="317.1719" y2="317.1719"/><text fill="#000000" font-family="sans-serif" font-size="13" lengthAdjust="spacingAndGlyphs" textLength="86" x="39" y="311.998">send(chunk_n)</text><polygon fill="#A80036" points="43,342.4063,33,346.4063,43,350.4063,39,346.4063" style="stroke: #A80036; stroke-width: 1.0;"/><line style="stroke: #A80036; stroke-width: 1.0; stroke-dasharray: 2.0,2.0;" x1="37" x2="141" y1="346.4063" y2="346.4063"/><text fill="#000000" font-family="sans-serif" font-size="13" lengthAdjust="spacingAndGlyphs" textLength="30" x="49" y="341.2324">ack()</text><polygon fill="#A80036" points="130,371.6406,140,375.6406,130,379.6406,134,375.6406" style="stroke: #A80036; stroke-width: 1.0;"/><line style="stroke: #A80036; stroke-width: 1.0;" x1="32" x2="136" y1="375.6406" y2="375.6406"/><text fill="#000000" font-family="sans-serif" font-size="13" lengthAdjust="spacingAndGlyphs" textLength="74" x="39" y="370.4668">disconnect()</text><!--MD5=[ef41e4ee6be82a19285eae7ff9958535]
@startuml
hide footbox
skinparam sequenceParticipant underline
client -> server : connect()
client <- - server : accept()
client -> server : send(filesize)
client -> server : send(chunk_1)
client <- - server : ack()
client -> server : send(chunk_2)
client <- - server : ack()
... Repeat until finish ...
client -> server : send(chunk_n)
client <- - server : ack()
client -> server : disconnect()
@enduml

PlantUML version 1.2020.19(Mon Oct 12 22:10:01 ICT 2020)
(GPL source distribution)
Java Runtime: OpenJDK Runtime Environment
JVM: OpenJDK 64-Bit Server VM
Default Encoding: UTF-8
Language: en
Country: US
--></g></svg>