<?xml version="1.0" encoding="UTF-8" standalone="no"?><svg xmlns="http://www.w3.org/2000/svg" xmlns:xlink="http://www.w3.org/1999/xlink" contentScriptType="application/ecmascript" contentStyleType="text/css" height="182px" preserveAspectRatio="none" style="width:115px;height:182px;" version="1.1" viewBox="0 0 115 182" width="115px" zoomAndPan="magnify"><defs><filter height="300%" id="f1d7g25hashf2x" width="300%" x="-1" y="-1"><feGaussianBlur result="blurOut" stdDeviation="2.0"/><feColorMatrix in="blurOut" result="blurOut2" type="matrix" values="0 0 0 0 0 0 0 0 0 0 0 0 0 0 0 0 0 0 .4 0"/><feOffset dx="4.0" dy="4.0" in="blurOut2" result="blurOut3"/><feBlend in="SourceGraphic" in2="blurOut3" mode="normal"/></filter></defs><g><!--MD5=[c251b62818238b6f79269adc5bf7d1e2]
entity cli--><polygon fill="#FEFECE" filter="url(#f1d7g25hashf2x)" points="18.5,16,28.5,6,95.5,6,95.5,42.4063,85.5,52.4063,18.5,52.4063,18.5,16" style="stroke: #000000; stroke-width: 1.5;"/><line style="stroke: #000000; stroke-width: 1.5;" x1="85.5" x2="95.5" y1="16" y2="6"/><line style="stroke: #000000; stroke-width: 1.5;" x1="18.5" x2="85.5" y1="16" y2="16"/><line style="stroke: #000000; stroke-width: 1.5;" x1="85.5" x2="85.5" y1="16" y2="52.4063"/><text fill="#000000" font-family="sans-serif" font-size="14" lengthAdjust="spacingAndGlyphs" textLength="37" x="33.5" y="38.9883">Client</text><!--MD5=[98e9fd532143e0ffb744dacc4a0da566]
entity srv--><polygon fill="#FEFECE" filter="url(#f1d7g25hashf2x)" points="16,139,26,129,98,129,98,165.4063,88,175.4063,16,175.4063,16,139" style="stroke: #000000; stroke-width: 1.5;"/><line style="stroke: #000000; stroke-width: 1.5;" x1="88" x2="98" y1="139" y2="129"/><line style="stroke: #000000; stroke-width: 1.5;" x1="16" x2="88" y1="139" y2="139"/><line style="stroke: #000000; stroke-width: 1.5;" x1="88" x2="88" y1="139" y2="175.4063"/><text fill="#000000" font-family="sans-serif" font-size="14" lengthAdjust="spacingAndGlyphs" textLength="42" x="31" y="161.9883">Server</text><!--MD5=[92da246b38dbb0478401dae8c3b647b7]
link cli to srv--><path d="M57,52.19 C57,74.03 57,107.16 57,128.95 " fill="none" id="cli-srv" style="stroke: #A80036; stroke-width: 1.0;"/><text fill="#000000" font-family="sans-serif" font-size="13" lengthAdjust="spacingAndGlyphs" textLength="39" x="58" y="95.0605">TCP/IP</text><!--MD5=[4931b42a43bcb46d8bbc29edbcd1e1a8]
@startuml
node Client as cli
node Server as srv

cli - - srv : TCP/IP
@enduml

PlantUML version 1.2020.19(Mon Oct 12 22:10:01 ICT 2020)
(GPL source distribution)
Java Runtime: OpenJDK Runtime Environment
JVM: OpenJDK 64-Bit Server VM
Default Encoding: UTF-8
Language: en
Country: US
--></g></svg>